<svg xmlns="http://www.w3.org/2000/svg" height="800" width="1200" viewBox="-85.22805 -83.8865 738.6431 503.319"><path d="M234.942 31.064c-34.676 17.93-57.083 50.924-64.513 88.668l162.248-94.804c-32.041-10.998-66.944-9.816-97.735 6.136zM219.786 0c-33.245 6.34-62.992 24.633-81.852 53.765-21.247 32.767-24.36 72.511-12.111 108.983zM109.075 226.853l.022-187.927C83.465 61.037 66.853 91.759 65.081 126.39c-2.022 39.017 15.157 74.989 43.994 100.463zm8.634 52.582l-92.622-163.52c-11.408 31.882-10.704 66.785 4.817 97.804 17.475 34.925 50.129 57.763 87.805 65.716zM52.81 315.521c32.496 21.611 72.217 25.178 108.848 13.361L0 233.034c5.954 33.335 23.905 63.286 52.81 82.487z" fill="#EE312F"/><path d="M175.178 154.432c2.66-.182 8.976-.273 12.817.091 7.021.636 10.044 5.431 10.044 11.476 0 7.908-5.158 13.521-14.043 14.406-3.023.273-6.59.273-8.818 0zm0 29.427c2.228 0 8.022.636 11.999-.159 12.566-2.499 19.042-7.385 19.042-18.133 0-10.771-5.681-14.611-22.951-14.611h-15.906v60.854c1.25-.114 2.59-.272 3.908-.272 1.25 0 2.5.158 3.908.272zm60.219-29.609c3.726-.182 9.771-.431 13.065.091 6.682 1.067 9.794 5.067 9.794 11.225 0 6.908-4.886 11.362-11.385 12.703-4.545.886-10.249.522-11.475.454V154.25zm-7.817 57.559c1.228-.114 2.567-.272 3.909-.272 1.249 0 2.476.158 3.909.272v-29.7h3.386l7.112 8.339 10.498 13.611c1.864 2.5 3.636 5 5.59 7.749 1.591-.114 3.386-.272 5.067-.272 1.704 0 3.295.158 5.158.272l-1.681-2.228-4.272-4.998-18.315-23.202c8.976-1.613 18.225-6.59 18.225-16.906 0-8.977-6.044-13.521-19.747-13.521h-18.838v60.856zm71.852-34.335h13.794c2.658 0 5.227-.364 7.907-.455-.091.728-.272 1.523-.272 2.318 0 .704.182 1.5.272 2.499-2.681-.091-5.249-.454-7.907-.454h-13.794v25.973c5.408.182 10.748-.182 16.089-.363a66.614 66.614 0 008.18-.795c-.091.977-.271 1.772-.271 2.658 0 .909.181 1.795.271 2.682h-32.108v-60.582h31.586c-.092 1-.273 1.795-.273 2.682 0 .886.182 1.772.273 2.659-2.682-.522-5.341-.796-8.021-.978l-8.863-.159h-6.862v22.315zm105.917-26.519c2.316 21.974 4.795 43.857 7.203 60.854-1.592-.114-2.842-.272-4.182-.272-1.432 0-2.842.158-4.182.272-1.5-17.884-3.295-37.085-4.521-45.902-10.317 18.429-17.975 32.631-23.315 44.902h-.978l-4.885-10.044c-5.704-11.725-11.93-23.292-17.975-34.858-1.954 17.338-4.34 34.949-4.34 45.902-1.16-.114-2.137-.272-3.113-.272-1.16 0-2.137.158-3.205.272 2.318-14.339 7.658-51.515 8.521-60.854h2.318c7.111 14.157 15.656 30.881 25.155 46.607 8.454-15.204 16.655-30.678 25.632-46.607zm29.881 0c1.25.114 2.59.272 3.932.272 1.227 0 2.477-.159 3.885-.272v60.854c-1.408-.114-2.658-.272-3.885-.272-1.342 0-2.682.158-3.932.272zm41.811 26.519h13.795c2.635 0 5.227-.364 7.885-.455-.092.728-.25 1.523-.25 2.318 0 .704.158 1.5.25 2.499-2.658-.091-5.25-.454-7.885-.454h-13.795v25.973c5.408.182 10.75-.182 16.09-.363 2.75-.092 5.408-.363 8.18-.795-.09.977-.271 1.772-.271 2.658 0 .909.182 1.795.271 2.682h-32.108v-60.582h31.586c-.092 1-.273 1.795-.273 2.682 0 .886.182 1.772.273 2.659-2.682-.522-5.34-.796-8.021-.978l-8.885-.159h-6.842zm54.334-23.224c3.727-.182 9.771-.431 13.066.091 6.658 1.067 9.771 5.067 9.771 11.225 0 6.908-4.887 11.362-11.385 12.703-4.521.886-10.227.522-11.453.454V154.25zm-7.84 57.559c1.25-.114 2.59-.272 3.908-.272 1.25 0 2.5.158 3.932.272v-29.7h3.385l7.113 8.339 10.477 13.611c1.863 2.5 3.658 5 5.613 7.749 1.59-.114 3.361-.272 5.066-.272 1.682 0 3.295.158 5.158.272l-1.705-2.228-4.248-4.998-18.338-23.202c8.977-1.613 18.246-6.59 18.246-16.906 0-8.977-6.045-13.521-19.746-13.521h-18.861zM167.384 232.17h31.2c-.091.977-.273 1.75-.273 2.637s.182 1.771.273 2.635c-2.659-.521-5.272-.795-7.908-.954l-8.794-.181h-6.771v22.064h13.611c2.66 0 5.205-.363 7.84-.432-.091.682-.273 1.477-.273 2.271 0 .705.182 1.5.273 2.455-2.636-.092-5.181-.432-7.84-.432h-13.611v30.063c-1.409-.09-2.636-.271-3.863-.271-1.341 0-2.636.182-3.864.271zm123.413 29.449c.614 9.658-6.091 28.838-24.633 28.838-13.088 0-23.996-9.316-23.996-27.154 0-17.861 9.339-29.564 24.792-29.564 7.045 0 13.907 3 18.293 8.544 4.567 5.885 5.544 12.043 5.544 19.336zm-24.882 31.746c19.611 0 33.471-12.861 33.471-32.449 0-21.088-16.77-30.063-33.29-30.063-18.202 0-32.54 12.134-32.54 31.382 0 18.814 12.929 31.13 32.359 31.13zm124.458-31.746c.613 9.658-6.044 28.838-24.609 28.838-13.09 0-23.996-9.316-23.996-27.154 0-17.861 9.316-29.564 24.791-29.564 7.045 0 13.907 3 18.27 8.544 4.59 5.885 5.544 12.043 5.544 19.336zm-24.883 31.746c19.634 0 33.518-12.861 33.518-32.449 0-21.088-16.815-30.063-33.336-30.063-18.178 0-32.518 12.134-32.518 31.382 0 18.814 12.93 31.13 32.336 31.13zm80.101-57.672c3.773-.092 7.453-.342 11.066-.342 19.703 0 27.359 6.749 27.359 25.383 0 10.725-3.18 20.473-12.68 25.223-7.111 3.613-18.02 2.568-25.746 2.137v-52.401zm-7.726 56.332H455c9.316 0 19.066-.16 26.541-6.682 6.59-5.795 11.066-13.701 11.066-25.928 0-8.34-2.818-16.52-9.408-21.975-7.385-6.158-16.246-5.271-25.404-5.271h-19.93zm92.441-11.59c3.432 5.613 7.408 9.135 14.248 9.135 7.113 0 12.227-5.885 12.227-12.838 0-16.34-27.52-9.137-27.52-28.996 0-11.34 8.977-16.884 19.496-16.884 4.227 0 9.316 1.317 12.59 4.227-1.045 2.272-1.682 4.749-2.363 7.203h-.91c-1.816-4.749-5.703-7.636-10.883-7.636-6.068 0-11.066 4.022-11.066 10.271 0 16.156 27.676 9.658 27.676 28.383 0 12.588-9.748 20.064-21.701 20.064-4.316 0-11.338-1.863-14.338-5.113.908-2.545 1.34-5.18 1.682-7.816z" fill="#003B7E"/></svg>